Crispy-Standard Medium-MaxGrade_VL.ufo
<glyph name="period" format="2">
  <advance width="728"/>
  <unicode hex="002E"/>
  <outline>
    <contour>
      <point x="552.9175481788095" y="0.0" type="line" identifier="1m237t4hyw"/>
      <point x="552.9175481788095" y="327.0636101567033" type="line"/>
      <point x="107.29112295478663" y="327.0636101567033" type="line" identifier="zfocDyDTCM"/>
      <point x="107.29112295478663" y="0.0" type="line" identifier="S4rO5KuHiL"/>
    </contour>
  </outline>
</glyph>
<glyph name="three" format="2">
  <advance width="2720"/>
  <unicode hex="0033"/>
  <outline>
    <contour>
      <point x="184.54484514544575" y="0.0" type="line" identifier="O9abUc1nmN"/>
      <point x="2590.4843221599976" y="0.0" type="line" identifier="kMJYMTfXCq"/>
      <point x="2590.4532791049305" y="941.7320293266239" type="line" identifier="su2XmdS8e8"/>
      <point x="2309.1159177195213" y="941.7320293266239" type="line" identifier="JQaOzDQqlF"/>
      <point x="2427.3176930684435" y="1141.8092717341965" type="line"/>
      <point x="2427.3176930684435" y="1600.0" type="line" identifier="xg8x2Ki40p"/>
      <point x="256.60950439929417" y="1600.0" type="line" identifier="pE1XSRiy68"/>
      <point x="256.60950439929417" y="1026.5360495630766" type="line" identifier="5lNstGRcSF"/>
      <point x="700.5432940447955" y="1026.5360495630766" type="line" identifier="AcE5xKDZfE"/>
      <point x="700.5432940447955" y="1305.245191137083" type="line" identifier="7ogBYufWpl"/>
      <point x="1983.3839034229425" y="1305.245191137083" type="line" identifier="RHLvSX2Jv6"/>
      <point x="1983.3839034229425" y="1122.579994408823" type="line"/>
      <point x="1882.1926130334539" y="941.7320293266239" type="line" identifier="iic1IBkDqp"/>
      <point x="756.664517370223" y="941.4046749452154" type="line" identifier="lRLJEhXMlO"/>
      <point x="756.664517370223" y="654.6670724778833" type="line" identifier="8aKgEELrVU"/>
      <point x="2146.519489459429" y="654.9944268592917" type="line" identifier="Dm8zjmbhNr"/>
      <point x="2146.5505325144964" y="294.754808862917" type="line" identifier="xv9CFHiFgB"/>
      <point x="628.4786347909471" y="294.754808862917" type="line" identifier="YajKQV3MHP"/>
      <point x="628.4786347909471" y="595.8192005819633" type="line" identifier="36SchVkwze"/>
      <point x="184.54484514544575" y="595.8192005819633" type="line" identifier="tVui9PiOjA"/>
    </contour>
  </outline>
</glyph>
<glyph name="four" format="2">
  <advance width="2689"/>
  <unicode hex="0034"/>
  <outline>
    <contour>
      <point x="1898.8705281858436" y="0.0" type="line"/>
      <point x="2342.5910655400144" y="0.0" type="line"/>
      <point x="2342.5910655400144" y="626.7473148824499" type="line"/>
      <point x="2575.4832850868893" y="626.7473148824499" type="line"/>
      <point x="2575.4832850868893" y="930.5882909936964" type="line"/>
      <point x="2342.5910655400144" y="930.5882909936964" type="line"/>
      <point x="2342.5910655400144" y="1600.0" type="line"/>
      <point x="1898.8705281858436" y="1600.0" type="line"/>
      <point x="1898.8705281858436" y="930.5882909936964" type="line"/>
      <point x="610.6792438083729" y="930.5882909936964" type="line"/>
      <point x="610.6792438083729" y="1049.4106058009963" type="line"/>
      <point x="734.156120084048" y="1600.0" type="line"/>
      <point x="289.95509022536055" y="1600.0" type="line"/>
      <point x="166.74545416287157" y="1048.8600552504458" type="line"/>
      <point x="166.74545416287157" y="626.7473148824499" type="line"/>
      <point x="1898.8705281858436" y="626.7473148824499" type="line"/>
    </contour>
  </outline>
</glyph>
<glyph name="six" format="2">
  <advance width="2819"/>
  <unicode hex="0036"/>
  <outline>
    <contour>
      <point x="168.99325752178603" y="0.0" type="line" identifier="uiw6aBUf4P"/>
      <point x="2621.0141703264826" y="0.0" type="line" identifier="jtYkxiUX6G"/>
      <point x="2621.0141703264826" y="929.6734842951059" type="line" identifier="2G5L37c87I"/>
      <point x="612.446554662771" y="929.6734842951059" type="line"/>
      <point x="612.446554662771" y="1143.4607851094336" type="line"/>
      <point x="770.9923677431184" y="1307.9175932689445" type="line"/>
      <point x="2176.3095948801656" y="1307.9175932689445" type="line"/>
      <point x="2176.3095948801656" y="1065.7872948023098" type="line"/>
      <point x="2619.9761443124808" y="1065.7872948023098" type="line" identifier="Wuidbv6mUe"/>
      <point x="2619.9761443124808" y="1600.0" type="line" identifier="oGvEEuxnYv"/>
      <point x="474.8288498708919" y="1600.0" type="line" identifier="xR3pEHbMJx"/>
      <point x="168.99325752178603" y="1216.3810056302548" type="line" identifier="KnMArb0tv8"/>
    </contour>
    <contour>
      <point x="2177.0803806809813" y="637.5910775640506" type="line"/>
      <point x="2177.0803806809813" y="292.0824067310554" type="line"/>
      <point x="612.446554662771" y="292.0824067310554" type="line"/>
      <point x="612.446554662771" y="637.5910775640506" type="line"/>
    </contour>
  </outline>
</glyph>
<glyph name="seven" format="2">
  <advance width="2722"/>
  <unicode hex="0037"/>
  <outline>
    <contour>
      <point x="1088.981762543324" y="0.0" type="line"/>
      <point x="1554.2947692437183" y="0.0" type="line" identifier="PiPrv7Kcoy"/>
      <point x="2617.392359326293" y="1127.8248188128068" type="line" identifier="PkvwNC9Tx1"/>
      <point x="2617.392359326293" y="1600.0" type="line" identifier="tgqM27bPOm"/>
      <point x="178.72491109728344" y="1600.0" type="line" identifier="36ml4xRICt"/>
      <point x="178.72491109728344" y="960.9646703760818" type="line" identifier="aaDZsh5Mah"/>
      <point x="622.3914605295986" y="960.9646703760818" type="line"/>
      <point x="622.3914605295986" y="1296.1590238887536" type="line"/>
      <point x="2109.963374786197" y="1296.1590238887536" type="line"/>
      <point x="2109.963374786197" y="1155.2452272091912" type="line"/>
    </contour>
  </outline>
</glyph>
<glyph name="eight" format="2">
  <advance width="2861"/>
  <unicode hex="0038"/>
  <outline>
    <contour>
      <point x="2057.0797253710166" y="653.9587966344723" type="line"/>
      <point x="2252.149025902779" y="525.0781862944025" type="line"/>
      <point x="2252.149025902779" y="292.0824067310554" type="line"/>
      <point x="608.5780615450285" y="292.0824067310554" type="line"/>
      <point x="608.5780615450285" y="520.2678624570517" type="line"/>
      <point x="804.364051739427" y="653.9587966344723" type="line"/>
    </contour>
    <contour>
      <point x="2476.504233963694" y="792.1227323419516" type="line"/>
      <point x="2476.504233963694" y="807.8772676580484" type="line"/>
      <point x="2692.5772980187394" y="979.2793363934505" type="line"/>
      <point x="2692.5772980187394" y="1600.0" type="line"/>
      <point x="168.38598658718777" y="1600.0" type="line"/>
      <point x="168.38598658718777" y="979.2793363934505" type="line"/>
      <point x="385.090814538262" y="807.8772676580484" type="line"/>
      <point x="385.090814538262" y="792.1227323419516" type="line"/>
      <point x="165.12476440404367" y="616.3358734109485" type="line"/>
      <point x="165.12476440404367" y="0.0" type="line"/>
      <point x="2695.8385202018835" y="0.0" type="line"/>
      <point x="2695.8385202018835" y="616.3358734109485" type="line"/>
    </contour>
    <contour>
      <point x="804.364051739427" y="946.0412033655277" type="line"/>
      <point x="612.1065239413588" y="1073.2094256418582" type="line"/>
      <point x="611.8392837281726" y="1307.9175932689445" type="line"/>
      <point x="2248.887803719636" y="1307.9175932689445" type="line"/>
      <point x="2248.62056350645" y="1073.2094256418582" type="line"/>
      <point x="2056.8124851578305" y="946.0412033655277" type="line"/>
    </contour>
  </outline>
</glyph>
<glyph name="B" format="2">
  <advance width="2910"/>
  <unicode hex="0042"/>
  <outline>
    <contour>
      <point x="265.7192026861696" y="0.0" type="line"/>
      <point x="2442.227449671894" y="0.0" type="line"/>
      <point x="2745.1610619628636" y="418.655487319151" type="line"/>
      <point x="2745.1610619628636" y="930.0264979694409" type="line"/>
      <point x="2284.240186132078" y="930.0264979694409" type="line"/>
      <point x="2419.785942098254" y="1136.6978479981483" type="line"/>
      <point x="2419.785942098254" y="1600.0" type="line"/>
      <point x="265.7192026861696" y="1600.0" type="line"/>
    </contour>
    <contour>
      <point x="709.652992331671" y="292.0824067310554" type="line"/>
      <point x="709.652992331671" y="653.9587966344723" type="line"/>
      <point x="2301.2272723173623" y="653.9587966344723" type="line"/>
      <point x="2301.2272723173623" y="477.69724078432785" type="line"/>
      <point x="2161.7706655604557" y="292.0824067310554" type="line"/>
    </contour>
    <contour>
      <point x="709.652992331671" y="946.0412033655277" type="line"/>
      <point x="709.652992331671" y="1307.9175932689445" type="line"/>
      <point x="1975.8521524527528" y="1307.9175932689445" type="line"/>
      <point x="1975.8521524527528" y="1158.6772117462808" type="line"/>
      <point x="1841.3236028821614" y="946.0412033655277" type="line"/>
    </contour>
  </outline>
</glyph>
<glyph name="C" format="2">
  <advance width="2719"/>
  <unicode hex="0043"/>
  <outline>
    <contour>
      <point x="162.59568878187497" y="0.0" type="line" identifier="7lPhzTnk2Z"/>
      <point x="2525.2390017645275" y="0.0" type="line" identifier="qJVLZGnkwh"/>
      <point x="2525.2390017645275" y="610.3572160749337" type="line" identifier="nDnDHzAMXL"/>
      <point x="2081.305212119026" y="610.3572160749337" type="line" identifier="QX1V08aTu0"/>
      <point x="2081.305212119026" y="303.8409761112464" type="line" identifier="Y750RHTvDj"/>
      <point x="606.5294784273764" y="303.8409761112464" type="line" identifier="L2LsGnXiZ2"/>
      <point x="606.5294784273764" y="1057.16983650317" type="line" identifier="sUWsr03vF4"/>
      <point x="764.3634024414806" y="1296.1590238887536" type="line" identifier="dbOUe6OhxL"/>
      <point x="2076.0005921837746" y="1296.1590238887536" type="line" identifier="5BjRbcud80"/>
      <point x="2076.0005921837746" y="983.2702792882974" type="line" identifier="fNVDqwQo2o"/>
      <point x="2519.9343818292764" y="983.2702792882974" type="line" identifier="wLqQQx7QVN"/>
      <point x="2519.9343818292764" y="1600.0" type="line" identifier="9eJelv8BOw"/>
      <point x="466.17112908704496" y="1600.0" type="line" identifier="lfZev3ICaC"/>
      <point x="162.59568878187497" y="1155.3437972507043" type="line" identifier="V1EWIdPahq"/>
    </contour>
  </outline>
</glyph>
<glyph name="G" format="2">
  <advance width="2775"/>
  <unicode hex="0047"/>
  <outline>
    <contour>
      <point x="168.99325752178603" y="0.0" type="line" identifier="7lPhzTnk2Z"/>
      <point x="2548.474567660754" y="0.0" type="line" identifier="qJVLZGnkwh"/>
      <point x="2548.474567660754" y="928.0367123880637" type="line" identifier="uek1NNj7De"/>
      <point x="1501.050275500726" y="928.0367123880637" type="line" identifier="qcvimxjndX"/>
      <point x="1501.050275500726" y="635.9543056570084" type="line" identifier="EARaY3Su65"/>
      <point x="2104.7540303065825" y="635.9543056570084" type="line" identifier="4m6dHLVhZq"/>
      <point x="2104.7540303065825" y="292.0824067310554" type="line" identifier="Y750RHTvDj"/>
      <point x="612.446554662771" y="292.0824067310554" type="line" identifier="L2LsGnXiZ2"/>
      <point x="612.446554662771" y="1102.7689220752284" type="line" identifier="sUWsr03vF4"/>
      <point x="775.8500151803454" y="1307.9175932689445" type="line" identifier="dbOUe6OhxL"/>
      <point x="2102.0967995022047" y="1307.9175932689445" type="line" identifier="5BjRbcud80"/>
      <point x="2102.0967995022047" y="1059.13213814415" type="line" identifier="fNVDqwQo2o"/>
      <point x="2545.6040845650455" y="1059.13213814415" type="line" identifier="wLqQQx7QVN"/>
      <point x="2545.6040845650455" y="1600.0" type="line" identifier="9eJelv8BOw"/>
      <point x="478.65948831714593" y="1600.0" type="line" identifier="lfZev3ICaC"/>
      <point x="168.99325752178603" y="1166.360760159559" type="line" identifier="V1EWIdPahq"/>
    </contour>
  </outline>
</glyph>
<glyph name="J" format="2">
  <advance width="2666"/>
  <unicode hex="004A"/>
  <outline>
    <contour>
      <point x="196.3668473278083" y="0.0" type="line" identifier="jiO9eX9U07"/>
      <point x="2400.042462883304" y="0.0" type="line" identifier="wgpFs1yguc"/>
      <point x="2400.042462883304" y="1600.0" type="line" identifier="d5Di3vNzni"/>
      <point x="1956.1086732378026" y="1600.0" type="line" identifier="46RrD1WET2"/>
      <point x="1956.1086732378026" y="303.8409761112464" type="line" identifier="zFXsE8BUYG"/>
      <point x="623.6899031163296" y="303.8409761112464" type="line" identifier="NQmE31PUns"/>
      <point x="623.6899031163296" y="899.6831726621516" type="line" identifier="qiXxY6YhCq"/>
      <point x="196.3668473278083" y="899.6831726621516" type="line" identifier="7exNZv1XSc"/>
    </contour>
  </outline>
</glyph>
<glyph name="K" format="2">
  <advance width="2808"/>
  <unicode hex="004B"/>
  <outline>
    <contour>
      <point x="709.4397400403407" y="0.0" type="line" identifier="wmNm7XZsaF"/>
      <point x="709.4397400403407" y="621.0882504125747" type="line" identifier="O22liaP9Qk"/>
      <point x="2185.8009090171254" y="621.0882504125747" type="line" identifier="DzXo67YEfw"/>
      <point x="2185.8009090171254" y="0.0" type="line" identifier="aKpYWD78l2"/>
      <point x="2629.521446371296" y="0.0" type="line" identifier="ChS7KlqGi6"/>
      <point x="2629.521446371296" y="927.8688688688688" type="line" identifier="sWLgkU8Vey"/>
      <point x="2220.516390264138" y="927.8688688688688" type="line" identifier="Of0iQc0wBG"/>
      <point x="2423.455876296717" y="1564.9655992328665" type="line" identifier="dMJ1ywOKQQ"/>
      <point x="2016.483600717835" y="1620.4722199677155" type="line" identifier="08OWjR2YBJ"/>
      <point x="1808.573925276628" y="927.8688688688688" type="line" identifier="g4YLdZEoM3"/>
      <point x="709.4397400403407" y="927.8688688688688" type="line" identifier="uZuki3Isec"/>
      <point x="709.4397400403407" y="1600.0" type="line" identifier="nRfcNgqJ4H"/>
      <point x="265.7192026861696" y="1600.0" type="line" identifier="3XJlWt89ad"/>
      <point x="265.7192026861696" y="0.0" type="line" identifier="wdbO8kCovY"/>
    </contour>
  </outline>
</glyph>
<glyph name="M" format="2">
  <advance width="3661"/>
  <unicode hex="004D"/>
  <outline>
    <contour>
      <point x="1483.6358610863115" y="133.95078562045526" type="line" identifier="0Dn4Xpf57M"/>
      <point x="825.2978924870816" y="1314.8658388117847" type="line"/>
      <point x="672.8686344001659" y="1314.8658388117847" type="line"/>
      <point x="672.8686344001659" y="0.0" type="line"/>
      <point x="265.7192026861696" y="0.0" type="line"/>
      <point x="265.7192026861696" y="1600.0" type="line"/>
      <point x="1102.7580282985687" y="1600.0" type="line"/>
      <point x="1733.4798041284528" y="435.8616694772851" type="line"/>
      <point x="1929.4027180333485" y="435.64841718595477" type="line" identifier="9aKZPM0HPh"/>
      <point x="2562.7056726396067" y="1600.0" type="line"/>
      <point x="3395.7237477717954" y="1600.0" type="line"/>
      <point x="3395.7237477717954" y="0.0" type="line"/>
      <point x="2988.0998415833246" y="0.0" type="line"/>
      <point x="2988.0998415833246" y="1314.8658388117847" type="line"/>
      <point x="2832.3298643989338" y="1314.8658388117847" type="line"/>
      <point x="2175.1468976483993" y="133.95078562045526" type="line" identifier="spdoeeCFft"/>
    </contour>
  </outline>
</glyph>
<glyph name="N" format="2">
  <advance width="2796"/>
  <unicode hex="004E"/>
  <outline>
    <contour>
      <point x="2534.515662809957" y="0.0" type="line"/>
      <point x="2534.515662809957" y="1600.0" type="line"/>
      <point x="2090.5818731644554" y="1600.0" type="line"/>
      <point x="2090.909227545864" y="741.3596088581074" type="line"/>
      <point x="2127.4792840888936" y="741.3596088581074" type="line"/>
      <point x="844.8009120231342" y="1600.0" type="line"/>
      <point x="261.46359572785997" y="1600.0" type="line"/>
      <point x="261.46359572785997" y="0.0" type="line"/>
      <point x="705.3973853733613" y="0.0" type="line"/>
      <point x="705.3973853733613" y="1179.6303330357384" type="line"/>
      <point x="800.8069541012485" y="1179.6303330357384" type="line"/>
      <point x="2090.5818731644554" y="351.3801008215422" type="line"/>
      <point x="2090.5818731644554" y="0.0" type="line"/>
    </contour>
  </outline>
</glyph>
<glyph name="O" format="2">
  <advance width="2786"/>
  <unicode hex="004F"/>
  <outline>
    <contour>
      <point x="2616.549501453405" y="440.9495110726341" type="line" identifier="ob8US3C311"/>
      <point x="2616.549501453405" y="1600.0" type="line" identifier="c9brEFyXXA"/>
      <point x="473.1451301151001" y="1600.0" type="line" identifier="a4Ql951bxG"/>
      <point x="168.99325752178603" y="1155.305771236702" type="line" identifier="kbL68Qh2zr"/>
      <point x="168.99325752178603" y="0.0" type="line" identifier="U6WibAQAUl"/>
      <point x="2312.3665858050244" y="0.0" type="line" identifier="dfgNHTgBfR"/>
    </contour>
    <contour>
      <point x="2172.8289640992343" y="506.5728731734738" type="line" identifier="SnrsQD5TLy"/>
      <point x="2015.801585369153" y="303.8409761112464" type="line" identifier="jjd5iRDXWT"/>
      <point x="612.7137948759571" y="303.8409761112464" type="line" identifier="YbQKHpAtYn"/>
      <point x="612.7137948759571" y="1089.9007776545316" type="line" identifier="vdfGLkskOQ"/>
      <point x="767.6323230137044" y="1296.1590238887536" type="line" identifier="qXlVxK5ShE"/>
      <point x="2172.8289640992343" y="1296.1590238887536" type="line" identifier="g70r2r6DwY"/>
    </contour>
  </outline>
</glyph>
<glyph name="Q" format="2">
  <advance width="2929"/>
  <unicode hex="0051"/>
  <outline>
    <contour>
      <point x="2662.9359239119" y="1600.0" type="line" identifier="c9brEFyXXA"/>
      <point x="473.1451301151001" y="1600.0" type="line" identifier="a4Ql951bxG"/>
      <point x="168.99325752178603" y="1156.9204549895242" type="line" identifier="kbL68Qh2zr"/>
      <point x="168.99325752178603" y="0.5344804263723183" type="line" identifier="U6WibAQAUl"/>
      <point x="2662.9359239119" y="0.5344804263723183" type="line" identifier="dfgNHTgBfR"/>
    </contour>
    <contour>
      <point x="2219.215386557729" y="304.37545653761873" type="line" identifier="jjd5iRDXWT"/>
      <point x="612.7137948759571" y="304.37545653761873" type="line" identifier="YbQKHpAtYn"/>
      <point x="612.7137948759571" y="1090.8198979760539" type="line" identifier="vdfGLkskOQ"/>
      <point x="764.8810822834847" y="1296.1590238887536" type="line" identifier="qXlVxK5ShE"/>
      <point x="2219.215386557729" y="1296.1590238887536" type="line" identifier="g70r2r6DwY"/>
    </contour>
    <contour>
      <point x="1258.8441745048349" y="-368.4979273567862" type="line"/>
      <point x="1614.3186339492643" y="-368.4979273567862" type="line"/>
      <point x="1614.3186339492643" y="1.5085986887788692" type="line"/>
      <point x="1258.8441745048349" y="1.5085986887788692" type="line"/>
    </contour>
  </outline>
</glyph>
<glyph name="S" format="2">
  <advance width="2617"/>
  <unicode hex="0053"/>
  <outline>
    <contour>
      <point x="167.54565376186997" y="0.0" type="line" identifier="09VlJ0BjUX"/>
      <point x="2145.882092302513" y="0.0" type="line" identifier="EagWihqFM8"/>
      <point x="2449.905136367599" y="435.03578353127904" type="line"/>
      <point x="2449.905136367599" y="948.2791169547926" type="line" identifier="KfNuQA7eZe"/>
      <point x="610.2783444104765" y="948.2791169547926" type="line" identifier="At364YZFEy"/>
      <point x="610.2783444104765" y="1082.7952907862818" type="line"/>
      <point x="773.7529932334736" y="1313.7564050537023" type="line"/>
      <point x="1951.1477483489493" y="1313.7564050537023" type="line" identifier="3ZUkG35meB"/>
      <point x="1951.1477483489493" y="1100.1407052698344" type="line" identifier="DTOJhFIl15"/>
      <point x="2394.8682857031204" y="1100.1407052698344" type="line" identifier="9KDcrfQ5Ui"/>
      <point x="2394.8682857031204" y="1600.0" type="line" identifier="SaF9ojRFrW"/>
      <point x="472.02743584425275" y="1600.0" type="line"/>
      <point x="169.1700288877466" y="1149.3324044765486" type="line"/>
      <point x="169.1700288877466" y="653.0303005708411" type="line" identifier="3sQ8t8BZ6b"/>
      <point x="2005.9233768302834" y="653.0303005708411" type="line" identifier="yiV6OCBLHg"/>
      <point x="2005.9233768302834" y="500.7925493060628" type="line"/>
      <point x="1837.7526595664735" y="289.517138760382" type="line" identifier="9kdl9SYsn8"/>
      <point x="611.266191116041" y="289.517138760382" type="line" identifier="yZDWuX8LLe"/>
      <point x="611.266191116041" y="506.7478559640722" type="line" identifier="jYb9001DTm"/>
      <point x="167.54565376186997" y="506.7478559640722" type="line" identifier="ho4DrS0rdW"/>
    </contour>
  </outline>
</glyph>
<glyph name="W" format="2">
  <advance width="3155"/>
  <unicode hex="0057"/>
  <outline>
    <contour>
      <point x="1206.4555877198518" y="1600.0" type="line" identifier="0Dn4Xpf57M"/>
      <point x="845.8946153360567" y="195.15830545259973" type="line"/>
      <point x="717.0271021772522" y="195.15830545259973" type="line"/>
      <point x="397.7278299320342" y="1613.6481466451437" type="line"/>
      <point x="-8.781844907971042" y="1560.5686016346676" type="line"/>
      <point x="372.0109448788128" y="0.0" type="line"/>
      <point x="1177.9520511502494" y="0.0" type="line"/>
      <point x="1505.7338900462025" y="1311.4511268024783" type="line"/>
      <point x="1644.4781959136315" y="1311.4511268024783" type="line" identifier="9aKZPM0HPh"/>
      <point x="1974.841213585959" y="0.0" type="line"/>
      <point x="2780.475938400863" y="0.0" type="line"/>
      <point x="3163.7386756125497" y="1560.5686016346676" type="line"/>
      <point x="2756.3280217154092" y="1613.0083897711525" type="line"/>
      <point x="2429.760862965067" y="195.15830545259973" type="line"/>
      <point x="2305.916586255926" y="195.15830545259973" type="line"/>
      <point x="1943.4952760568376" y="1600.0" type="line" identifier="spdoeeCFft"/>
    </contour>
  </outline>
</glyph>
<glyph name="X" format="2">
  <advance width="2688"/>
  <unicode hex="0058"/>
  <outline>
    <contour>
      <point x="188.4537390243096" y="0.0" type="line"/>
      <point x="632.1742763784806" y="0.0" type="line"/>
      <point x="632.387528669811" y="641.191380569759" type="line"/>
      <point x="799.7345874402931" y="640.8640261883505" type="line"/>
      <point x="1843.3417531645757" y="643.4762480197916" type="line"/>
      <point x="2056.129652174697" y="530.7984651317984" type="line"/>
      <point x="2056.129652174697" y="0.0" type="line"/>
      <point x="2499.850189528868" y="0.0" type="line"/>
      <point x="2499.850189528868" y="638.7810813816819" type="line"/>
      <point x="2196.7906795684576" y="787.1092864636408" type="line"/>
      <point x="2196.666507348189" y="804.2339967595223" type="line"/>
      <point x="2496.9393958523083" y="804.2339967595223" type="line"/>
      <point x="2496.9393958523083" y="1599.7867477086697" type="line"/>
      <point x="2031.0406201997791" y="1599.7867477086697" type="line"/>
      <point x="2031.0406201997791" y="945.7739631523416" type="line"/>
      <point x="1896.6035374714054" y="945.7739631523416" type="line"/>
      <point x="828.2442592742893" y="943.1617413209005" type="line"/>
      <point x="635.7248269290311" y="1047.869936002068" type="line"/>
      <point x="635.7248269290311" y="1600.0" type="line"/>
      <point x="192.00428957486017" y="1600.0" type="line"/>
      <point x="192.00428957486017" y="953.1731280830379" type="line"/>
      <point x="469.816852888925" y="806.7682607532457" type="line"/>
      <point x="469.816852888925" y="789.3763102441781" type="line"/>
      <point x="188.4537390243096" y="789.3763102441781" type="line"/>
    </contour>
  </outline>
</glyph>
<glyph name="bracketleft" format="2">
  <advance width="1268"/>
  <unicode hex="005B"/>
  <outline>
    <contour>
      <point x="692.9347726104482" y="1443.0052695337981" type="line"/>
      <point x="1197.2872902932963" y="1443.0052695337981" type="line"/>
      <point x="1197.2872902932963" y="1746.8462456450445" type="line"/>
      <point x="265.7192026861696" y="1746.8462456450445" type="line"/>
      <point x="265.7192026861696" y="-146.84624564504443" type="line"/>
      <point x="1192.2872902932963" y="-146.84624564504443" type="line"/>
      <point x="1192.2872902932963" y="156.994730466202" type="line"/>
      <point x="692.9347726104482" y="156.994730466202" type="line"/>
    </contour>
  </outline>
</glyph>
<glyph name="ordfeminine" format="2">
  <advance width="1037"/>
  <unicode hex="00AA"/>
  <outline>
    <contour>
      <point x="793.1444958471985" y="1263.8719109499891" type="line" smooth="yes"/>
      <point x="72.61442824205587" y="1263.8719109499891" type="line"/>
      <point x="72.61442824205587" y="841.5454493532571" type="line" smooth="yes"/>
      <point x="245.106073040007" y="841.5454493532571" type="line" smooth="yes"/>
      <point x="245.106073040007" y="1151.249937625313" type="line" smooth="yes"/>
      <point x="793.1444958471985" y="1151.249937625313" type="line" smooth="yes"/>
      <point x="793.1444958471985" y="841.5454493532571" type="line" smooth="yes"/>
      <point x="965.6361406451496" y="841.5454493532571" type="line" smooth="yes"/>
      <point x="965.6361406451496" y="1600.0" type="line" smooth="yes"/>
      <point x="72.61442824205587" y="1600.0" type="line" smooth="yes"/>
      <point x="72.61442824205587" y="1339.4025046067088" type="line"/>
      <point x="245.106073040007" y="1339.4025046067088" type="line"/>
      <point x="245.106073040007" y="1487.378026675324" type="line" smooth="yes"/>
      <point x="793.1444958471985" y="1487.378026675324" type="line" smooth="yes"/>
    </contour>
    <contour>
      <point x="243.106073040007" y="954.1674226779332" type="line"/>
      <point x="243.106073040007" y="841.5454493532571" type="line"/>
      <point x="793.1444958471985" y="841.5454493532571" type="line"/>
      <point x="793.1444958471985" y="954.1674226779332" type="line"/>
    </contour>
  </outline>
</glyph>
<glyph name="quoteleft" format="2">
  <advance width="521"/>
  <unicode hex="2018"/>
  <outline>
    <contour>
      <point x="483.9545822098375" y="1600.0" type="line"/>
      <point x="169.14339264189115" y="1600.0" type="line"/>
      <point x="4.059906753600444" y="1102.2642642642643" type="line"/>
      <point x="447.9936963991018" y="1102.2642642642643" type="line"/>
    </contour>
  </outline>
</glyph>
<glyph name="C.wide" format="2">
  <advance width="2669"/>
  <outline>
    <contour>
      <point x="168.99325752178603" y="0.0" type="line" identifier="7lPhzTnk2Z"/>
      <point x="2494.1459748036327" y="0.0" type="line" identifier="qJVLZGnkwh"/>
      <point x="2494.1459748036327" y="303.8409761112464" type="line" identifier="Y750RHTvDj"/>
      <point x="612.7137948759571" y="303.8409761112464" type="line" identifier="L2LsGnXiZ2"/>
      <point x="612.7137948759571" y="1020.5099153207261" type="line" identifier="sUWsr03vF4"/>
      <point x="773.6481286090896" y="1296.1590238887536" type="line" identifier="dbOUe6OhxL"/>
      <point x="2493.1459748036327" y="1296.1590238887536" type="line" identifier="5BjRbcud80"/>
      <point x="2493.1459748036327" y="1600.0" type="line" identifier="9eJelv8BOw"/>
      <point x="445.8027727427127" y="1600.0" type="line" identifier="lfZev3ICaC"/>
      <point x="168.99325752178603" y="1091.9891513134755" type="line" identifier="V1EWIdPahq"/>
    </contour>
  </outline>
</glyph>
<glyph name="E.wide" format="2">
  <advance width="2546"/>
  <outline>
    <contour>
      <point x="249.68478989500002" y="0.0" type="line" identifier="fZynkQ4XHB"/>
      <point x="2381.1688445201958" y="0.0" type="line" identifier="FAQNpgUPxV"/>
      <point x="2381.1688445201958" y="288.53507561615675" type="line" identifier="5cgTYOhATF"/>
      <point x="693.138087035985" y="288.53507561615675" type="line" identifier="bWs42DaCgU"/>
      <point x="693.138087035985" y="663.1782863945026" type="line" identifier="VtD2aADJmn"/>
      <point x="2021.086320554789" y="663.1782863945026" type="line" identifier="PpbsFdHAnS"/>
      <point x="2021.086320554789" y="937.1490679869058" type="line" identifier="8WuC5p8Ax5"/>
      <point x="693.138087035985" y="937.1490679869058" type="line" identifier="m39IWn9ntA"/>
      <point x="693.138087035985" y="1315.065822579336" type="line" identifier="gQ21I4SHQg"/>
      <point x="2375.050789528267" y="1315.065822579336" type="line" identifier="eqNb2VTwYs"/>
      <point x="2375.050789528267" y="1600.0" type="line" identifier="qYRmo14Il5"/>
      <point x="249.68478989500002" y="1600.0" type="line" identifier="HmJIcnLWfC"/>
    </contour>
  </outline>
</glyph>
<glyph name="E.wideskinny" format="2">
  <advance width="2899"/>
  <outline>
    <contour>
      <point x="338.42393745096444" y="0.0" type="line" identifier="fZynkQ4XHB"/>
      <point x="2598.391310229148" y="0.0" type="line" identifier="FAQNpgUPxV"/>
      <point x="2598.391310229148" y="288.53507561615675" type="line" identifier="5cgTYOhATF"/>
      <point x="750.1026431837244" y="288.53507561615675" type="line" identifier="bWs42DaCgU"/>
      <point x="750.1026431837244" y="676.5402970538105" type="line" identifier="VtD2aADJmn"/>
      <point x="2429.8247166085007" y="676.5402970538105" type="line" identifier="PpbsFdHAnS"/>
      <point x="2429.8247166085007" y="923.7870573275978" type="line" identifier="8WuC5p8Ax5"/>
      <point x="750.1026431837244" y="923.7870573275978" type="line" identifier="m39IWn9ntA"/>
      <point x="750.1026431837244" y="1315.065822579336" type="line" identifier="gQ21I4SHQg"/>
      <point x="2597.391310229148" y="1315.065822579336" type="line" identifier="eqNb2VTwYs"/>
      <point x="2597.391310229148" y="1600.0" type="line" identifier="qYRmo14Il5"/>
      <point x="338.42393745096444" y="1600.0" type="line" identifier="HmJIcnLWfC"/>
    </contour>
  </outline>
</glyph>
<glyph name="F.wide" format="2">
  <advance width="2635"/>
  <outline>
    <contour>
      <point x="251.54737319902483" y="0.0" type="line" identifier="oAgH2tA6DJ"/>
      <point x="695.2679105531959" y="0.0" type="line" identifier="zCZyMcW5ho"/>
      <point x="695.2679105531959" y="614.8084029975922" type="line" identifier="yHYqkMd7LI"/>
      <point x="2211.52313875437" y="614.8084029975922" type="line" identifier="NmB7yyQuio"/>
      <point x="2211.52313875437" y="918.6493791088386" type="line" identifier="wQk2C8zPHh"/>
      <point x="695.2679105531959" y="918.6493791088386" type="line" identifier="4cFHKQfHDt"/>
      <point x="695.2679105531959" y="1296.1590238887536" type="line" identifier="ZvzwyrcwpS"/>
      <point x="2458.1767322878436" y="1296.1590238887536" type="line" identifier="4E754ovOIe"/>
      <point x="2458.1767322878436" y="1600.0" type="line" identifier="NUrIjqOB7J"/>
      <point x="251.54737319902483" y="1600.0" type="line" identifier="TBAYuCfUFX"/>
    </contour>
  </outline>
</glyph>
<glyph name="L.wide" format="2">
  <advance width="2459"/>
  <outline>
    <contour>
      <point x="265.7192026861696" y="0.0" type="line" identifier="XkJNfQlnnt"/>
      <point x="2299.5415926436945" y="0.0" type="line" identifier="82EXZEgt46"/>
      <point x="2299.5415926436945" y="303.8409761112464" type="line" identifier="cqpSxwFiM3"/>
      <point x="709.4397400403407" y="303.8409761112464" type="line" identifier="MbxRZRd8vz"/>
      <point x="709.4397400403407" y="1600.0" type="line" identifier="lYiaKSKITt"/>
      <point x="265.7192026861696" y="1600.0" type="line" identifier="XFf4mMUzYo"/>
    </contour>
  </outline>
</glyph>
<glyph name="R.wide" format="2">
  <advance width="2952"/>
  <outline>
    <contour>
      <point x="2261.756161566972" y="0.0" type="line"/>
      <point x="2673.9693477261044" y="0.0" type="line"/>
      <point x="2364.097124151178" y="655.6656656656658" type="line"/>
      <point x="1980.7046776506236" y="655.1311852392935" type="line"/>
    </contour>
    <contour>
      <point x="300.67267267267266" y="0.0" type="line" identifier="EG08jqU5fb"/>
      <point x="712.6186186186187" y="0.0" type="line" identifier="osRzIFK2Cu"/>
      <point x="712.6186186186187" y="639.0056272488705" type="line" identifier="hIFVovVRwe"/>
      <point x="2697.3003273543814" y="639.0056272488705" type="line" identifier="Tt6D8zYZmU"/>
      <point x="2697.3003273543814" y="1600.0" type="line" identifier="6xW04auDFu"/>
      <point x="300.67267267267266" y="1600.0" type="line" identifier="eETO5GBD5v"/>
    </contour>
    <contour>
      <point x="712.6186186186187" y="942.846603360117" type="line" identifier="PIBVN1PGv1"/>
      <point x="712.6186186186187" y="1296.1590238887536" type="line" identifier="IZIZQr2gYJ"/>
      <point x="2285.3543814084355" y="1296.1590238887536" type="line" identifier="2c4LCF1E1R"/>
      <point x="2285.3543814084355" y="942.846603360117" type="line" identifier="1WCnzth1GX"/>
    </contour>
  </outline>
</glyph>
<glyph name="U.alt" format="2">
  <advance width="2839"/>
  <outline>
    <contour>
      <point x="2246.8926494061625" y="1600.0" type="line" smooth="yes"/>
      <point x="2246.8926494061625" y="303.8409761112464" type="line"/>
      <point x="564.8436003571138" y="303.8409761112464" type="line" smooth="yes"/>
      <point x="564.8436003571138" y="1600.0" type="line"/>
      <point x="152.89765441116793" y="1600.0" type="line" smooth="yes"/>
      <point x="152.89765441116793" y="0.0" type="line" smooth="yes"/>
      <point x="2658.8385953521088" y="0.0" type="line" smooth="yes"/>
      <point x="2658.8385953521088" y="1600.0" type="line" smooth="yes"/>
    </contour>
  </outline>
</glyph>
<glyph name="Y.alt" format="2">
  <advance width="2284"/>
  <outline>
    <contour>
      <point x="295.5204423642862" y="501.53672892111325" type="line" smooth="yes"/>
      <point x="2023.3218624029435" y="501.53672892111325" type="line" smooth="yes"/>
      <point x="2308.630269909549" y="1563.957756555354" type="line" smooth="yes"/>
      <point x="1882.8495221948674" y="1619.5123471820168" type="line" smooth="yes"/>
      <point x="1686.4725806887968" y="805.3777050323597" type="line"/>
      <point x="619.7943559174789" y="805.3777050323597" type="line" smooth="yes"/>
      <point x="424.72465859252645" y="1620.3653563473383" type="line"/>
      <point x="8.300414528642753" y="1564.2852401951502" type="line" smooth="yes"/>
    </contour>
    <contour>
      <point x="1646.3411730048365" y="660.1608755903051" type="line"/>
      <point x="1453.3660387113841" y="-35.97446094743391" type="line"/>
      <point x="1840.837365894423" y="-112.33863292722152" type="line"/>
      <point x="2051.0322995668344" y="601.9526523520518" type="line"/>
    </contour>
  </outline>
</glyph>
<glyph name="Y.wide" format="2">
  <advance width="2793"/>
  <outline>
    <contour>
      <point x="222.0497584671759" y="0.0" type="line"/>
      <point x="2529.6595604613626" y="0.0" type="line" identifier="oOtn61SmRY"/>
      <point x="2529.6595604613626" y="1600.0" type="line" identifier="8OglXgblhr"/>
      <point x="2085.756813870928" y="1600.0" type="line" identifier="db0bPhBdaU"/>
      <point x="2085.756813870928" y="955.076082088094" type="line" identifier="MTAeavIVWY"/>
      <point x="658.772826880935" y="955.076082088094" type="line" identifier="lggLiivmLt"/>
      <point x="658.772826880935" y="1600.0" type="line" identifier="UPaHY3UudR"/>
      <point x="215.05228952676399" y="1600.0" type="line" identifier="ZnCDQVdtyD"/>
      <point x="215.05228952676399" y="660.321273225177" type="line" identifier="uqAJBjDIOT"/>
      <point x="2085.756813870928" y="660.321273225177" type="line" identifier="7JgTtdb0jg"/>
      <point x="2085.756813870928" y="294.754808862917" type="line"/>
      <point x="222.0497584671759" y="294.754808862917" type="line"/>
    </contour>
  </outline>
</glyph>
<glyph name="eight.skinnymiddle" format="2">
  <advance width="3088"/>
  <outline>
    <contour>
      <point x="2215.645889132376" y="667.3208072937803" type="line"/>
      <point x="2410.9284419554688" y="538.4401969537105" type="line"/>
      <point x="2410.9284419554688" y="292.0824067310554" type="line"/>
      <point x="676.9385060736413" y="292.0824067310554" type="line"/>
      <point x="676.9385060736413" y="533.6298731163596" type="line"/>
      <point x="872.9377485593701" y="667.3208072937803" type="line"/>
    </contour>
    <contour>
      <point x="2577.9187836485135" y="794.2552552552553" type="line"/>
      <point x="2577.9187836485135" y="805.7447447447447" type="line"/>
      <point x="2819.582122663204" y="1021.9297946595244" type="line"/>
      <point x="2819.582122663204" y="1600.0" type="line"/>
      <point x="268.7342748153559" y="1600.0" type="line"/>
      <point x="268.7342748153559" y="1021.9297946595244" type="line"/>
      <point x="510.6028731434136" y="805.7447447447447" type="line"/>
      <point x="510.6028731434136" y="794.2552552552553" type="line"/>
      <point x="265.2598003408814" y="573.6854151448746" type="line"/>
      <point x="265.2598003408814" y="0.0" type="line"/>
      <point x="2823.056597137678" y="0.0" type="line"/>
      <point x="2823.056597137678" y="573.6854151448746" type="line"/>
    </contour>
    <contour>
      <point x="872.9377485593701" y="932.6791927062197" type="line"/>
      <point x="680.6802207613019" y="1059.8474149825502" type="line"/>
      <point x="680.4129805481157" y="1307.9175932689445" type="line"/>
      <point x="2407.4539674809944" y="1307.9175932689445" type="line"/>
      <point x="2407.1867272678082" y="1059.8474149825502" type="line"/>
      <point x="2215.37864891919" y="932.6791927062197" type="line"/>
    </contour>
  </outline>
</glyph>
<glyph name="five.wide" format="2">
  <advance width="2705"/>
  <outline>
    <contour>
      <point x="168.69373577781985" y="0.0" type="line" identifier="09VlJ0BjUX"/>
      <point x="2537.9131143155164" y="0.0" type="line" identifier="EagWihqFM8"/>
      <point x="2537.9131143155164" y="942.7140924708493" type="line" identifier="KfNuQA7eZe"/>
      <point x="610.7105844583322" y="942.7140924708493" type="line" identifier="At364YZFEy"/>
      <point x="610.7105844583322" y="1305.245191137083" type="line" identifier="BcuLfvaQKC"/>
      <point x="2537.944157370584" y="1305.245191137083" type="line" identifier="3ZUkG35meB"/>
      <point x="2537.944157370584" y="1600.0" type="line" identifier="SaF9ojRFrW"/>
      <point x="167.25728731734736" y="1600.0" type="line" identifier="F4sQEYelA8"/>
      <point x="167.25728731734736" y="655.976490003517" type="line" identifier="3sQ8t8BZ6b"/>
      <point x="2094.459817174532" y="655.976490003517" type="line" identifier="yiV6OCBLHg"/>
      <point x="2094.459817174532" y="294.754808862917" type="line" identifier="9kdl9SYsn8"/>
      <point x="168.69373577781985" y="294.754808862917" type="line" identifier="yZDWuX8LLe"/>
    </contour>
  </outline>
</glyph>
<glyph name="nine.wide" format="2">
  <advance width="2909"/>
  <outline>
    <contour>
      <point x="222.70476783089399" y="0.0" type="line" identifier="oGvEEuxnYv"/>
      <point x="2583.8473097722344" y="0.0" type="line" identifier="xR3pEHbMJx"/>
      <point x="2583.8473097722344" y="1600.0" type="line" identifier="uiw6aBUf4P"/>
      <point x="221.66674181689194" y="1600.0" type="line" identifier="jtYkxiUX6G"/>
      <point x="221.66674181689194" y="656.6311987663339" type="line" identifier="2G5L37c87I"/>
      <point x="2140.1807603399197" y="656.6311987663339" type="line"/>
      <point x="2140.1807603399197" y="294.754808862917" type="line"/>
      <point x="222.70476783089399" y="294.754808862917" type="line"/>
    </contour>
    <contour>
      <point x="665.6005314623933" y="943.3688012336661" type="line"/>
      <point x="665.6005314623933" y="1305.245191137083" type="line"/>
      <point x="2140.1807603399197" y="1305.245191137083" type="line"/>
      <point x="2140.1807603399197" y="943.3688012336661" type="line"/>
    </contour>
  </outline>
</glyph>
<glyph name="one.narrow" format="2">
  <advance width="1872"/>
  <outline>
    <contour>
      <point x="1571.4094094094094" y="0.0" type="line" identifier="5nmxQXofSG"/>
      <point x="1571.4094094094094" y="1600.0" type="line" identifier="4rjIeWbSbx"/>
      <point x="227.18118118118116" y="1600.0" type="line"/>
      <point x="227.18118118118116" y="1296.1590238887536" type="line"/>
      <point x="1159.4634634634635" y="1296.1590238887536" type="line"/>
      <point x="1159.4634634634635" y="0.0" type="line"/>
    </contour>
  </outline>
</glyph>
